<?xml version="1.0" encoding="utf-8"?>
<!-- Generator: Adobe Illustrator 27.5.0, SVG Export Plug-In . SVG Version: 6.00 Build 0)  -->
<svg version="1.1" id="Layer_1" xmlns="http://www.w3.org/2000/svg" xmlns:xlink="http://www.w3.org/1999/xlink" x="0px" y="0px"
	 viewBox="0 0 32 32" style="enable-background:new 0 0 32 32;" xml:space="preserve">
<style type="text/css">
	.st0{fill:#1A3958;}
</style>
<g>
	<path class="st0" d="M18.7,12.4h8.9c0.4,0,0.8-0.3,0.8-0.7c0-0.4-0.3-0.8-0.8-0.8h-8.1V2.8c0-0.4-0.3-0.8-0.8-0.8
		C18.3,2,18,2.3,18,2.8v8.9C18,12,18.3,12.4,18.7,12.4z"/>
	<path class="st0" d="M13.3,19.6H4.4c-0.4,0-0.8,0.3-0.8,0.7c0,0.4,0.3,0.8,0.8,0.8h8.2v8.2c0,0.4,0.3,0.8,0.8,0.8
		c0.4,0,0.7-0.3,0.8-0.8v-8.9C14.1,20,13.7,19.6,13.3,19.6z"/>
	<path class="st0" d="M27.6,19.6h-8.9c-0.4,0-0.8,0.3-0.8,0.8v8.9c0,0.4,0.3,0.8,0.8,0.8c0.4,0,0.7-0.4,0.7-0.8v-8.1h8.2
		c0.4,0,0.8-0.3,0.8-0.8C28.4,20,28,19.6,27.6,19.6z"/>
	<path class="st0" d="M13.3,2c-0.4,0-0.8,0.3-0.8,0.8v8.1H4.4c-0.4,0-0.8,0.3-0.8,0.8c0,0.4,0.3,0.8,0.8,0.8h8.9
		c0.3,0,0.7-0.3,0.8-0.7V2.8C14.1,2.3,13.7,2,13.3,2z"/>
</g>
</svg>
