<?xml version="1.0" encoding="utf-8"?>
<!-- Generator: Adobe Illustrator 27.5.0, SVG Export Plug-In . SVG Version: 6.00 Build 0)  -->
<svg version="1.1" id="Layer_1" xmlns="http://www.w3.org/2000/svg" xmlns:xlink="http://www.w3.org/1999/xlink" x="0px" y="0px"
	 viewBox="0 0 32 32" style="enable-background:new 0 0 32 32;" xml:space="preserve">
<style type="text/css">
	.st0{fill:#1A3958;}
</style>
<g>
	<g>
		<path class="st0" d="M30,16c0-0.7-0.4-1.3-1-1.6l-1.3-0.7l1.3-0.7c0.6-0.3,1-0.9,1-1.6s-0.4-1.3-1-1.6L16.8,3.6
			c-0.5-0.3-1.2-0.3-1.7,0L3,9.8c-0.6,0.3-1,0.9-1,1.6s0.4,1.3,1,1.6l1.3,0.7L3,14.4c-0.6,0.3-1,0.9-1,1.6c0,0.7,0.4,1.3,1,1.6
			l1.3,0.7L3,19c-0.6,0.3-1,0.9-1,1.6c0,0.7,0.4,1.3,1,1.6l11.9,6c0.4,0.2,0.8,0.3,1.1,0.3c0.4,0,0.8-0.1,1.1-0.3l11.9-6
			c0.6-0.3,1-0.9,1-1.6c0-0.7-0.4-1.3-1-1.6l-1.3-0.7l1.3-0.7C29.6,17.4,30,16.7,30,16z M3.5,12.2C3.2,12,3,11.7,3,11.4
			c0-0.3,0.2-0.6,0.4-0.7l12.2-6.2c0.1-0.1,0.2-0.1,0.4-0.1c0.1,0,0.3,0,0.4,0.1l12.2,6.2c0.3,0.1,0.4,0.4,0.4,0.7
			c0,0.3-0.2,0.6-0.4,0.7l-2,1L26,13.5l-0.6,0.3L22,15.5l-0.6,0.3L20.9,16l-4.2,2.2c-0.4,0.2-0.9,0.2-1.4,0L11.1,16l-0.6-0.3
			L10,15.5l-3.4-1.7L6,13.5l-0.6-0.3L3.5,12.2z M28.5,19.9c0.3,0.1,0.4,0.4,0.4,0.7c0,0.3-0.2,0.6-0.4,0.7l-11.9,6
			c-0.4,0.2-0.9,0.2-1.4,0l-11.9-6C3.2,21.2,3,21,3,20.7c0-0.3,0.2-0.6,0.4-0.7l2-1l9.4,4.8c0.4,0.2,0.8,0.3,1.1,0.3
			c0.4,0,0.8-0.1,1.1-0.3l9.4-4.8L28.5,19.9z M28.5,16.8l-2,1L26,18.1l-0.6,0.3l-8.8,4.5c-0.4,0.2-0.9,0.2-1.4,0l-8.8-4.5L6,18.1
			l-0.6-0.3l-2-1C3.2,16.6,3,16.4,3,16c0-0.3,0.2-0.6,0.4-0.7l2-1L8.9,16l0.6,0.3l0.6,0.3l4.9,2.5c0.4,0.2,0.8,0.3,1.1,0.3
			c0.4,0,0.8-0.1,1.1-0.3l4.9-2.5l0.6-0.3l0.6-0.3l3.4-1.7l2,1c0.3,0.1,0.4,0.4,0.4,0.7C29,16.4,28.8,16.6,28.5,16.8z"/>
	</g>
</g>
</svg>
