<?xml version="1.0" encoding="UTF-8" standalone="no"?>
<!-- Generator: Adobe Illustrator 27.4.1, SVG Export Plug-In . SVG Version: 6.00 Build 0)  -->

<svg
   version="1.1"
   id="Layer_1"
   x="0px"
   y="0px"
   viewBox="0 0 256 256"
   style="enable-background:new 0 0 256 256;"
   xml:space="preserve"
   sodipodi:docname="VEClim-drop.svg"
   inkscape:version="1.2.1 (9c6d41e4, 2022-07-14)"
   xmlns:inkscape="http://www.inkscape.org/namespaces/inkscape"
   xmlns:sodipodi="http://sodipodi.sourceforge.net/DTD/sodipodi-0.dtd"
   xmlns="http://www.w3.org/2000/svg"
   xmlns:svg="http://www.w3.org/2000/svg"><defs
   id="defs289">
	
	
	
	
	
	
</defs><sodipodi:namedview
   id="namedview287"
   pagecolor="#505050"
   bordercolor="#ffffff"
   borderopacity="1"
   inkscape:showpageshadow="0"
   inkscape:pageopacity="0"
   inkscape:pagecheckerboard="1"
   inkscape:deskcolor="#505050"
   showgrid="false"
   inkscape:zoom="1.84375"
   inkscape:cx="61.016949"
   inkscape:cy="132.0678"
   inkscape:window-width="1606"
   inkscape:window-height="747"
   inkscape:window-x="0"
   inkscape:window-y="25"
   inkscape:window-maximized="0"
   inkscape:current-layer="Layer_1" />
<style
   type="text/css"
   id="style270">
	.st0{fill:#1B3958;}
	.st1{fill-rule:evenodd;clip-rule:evenodd;fill:#9E1F22;}
	.st2{fill-rule:evenodd;clip-rule:evenodd;fill:#D82927;}
	.st3{fill:#E75425;}
	.st4{fill:#F27C2A;}
	.st5{fill:#FCC021;}
</style>
<path
   id="path274"
   class="st2"
   d="m 128.49338,236.16406 c -24.99998,0 -48.69962,-9.59963 -66.5996,-27.09961 L 61.593,208.76367 c -17.99999,-17.69998 -28.2,-41.49885 -28.5,-66.79883 h -0.5 c 0,-0.4 -3.9e-4,-0.80117 0.0996,-1.20117 0,-24.99995 9.60159,-48.699655 27.10156,-66.59961 L 112.79415,19.83594 C 128.48298,4.2837 112.93871,19.87134 128.24337,4 c 15.79316,15.75164 -0.008,0.23528 15.44922,15.83594 l 53,54.32812 c 17.49994,17.899935 27.10156,41.59969 27.10156,66.59961 0.1,0.4 0.0996,0.80117 0.0996,1.20117 -0.3,26.09997 -11.19963,49.69885 -28.59961,66.79883 l -0.0508,-0.0508 c -17.19567,16.97089 -40.77523,27.45119 -66.74997,27.45119 z"
   sodipodi:nodetypes="sccccccccccccccs"
   style="fill:#1b3958;fill-opacity:1" />
</svg>
