<svg height="512" viewBox="0 0 60 54" width="512" xmlns="http://www.w3.org/2000/svg"><g id="044---Forklift" transform="translate(-1)"><path id="Shape" d="m35.718 2.756c-.9599682-1.70292925-2.7631325-2.75638875-4.718-2.75638875s-3.7580318 1.0534595-4.718 2.75638875l-24.543 42.962c-.98306303 1.6983683-.9901744 3.7910508-.01867676 5.4960611.97149765 1.7050103 2.77541746 2.7657856 4.73767676 2.7859389h49.084c1.9622593-.0201533 3.7661791-1.0809286 4.7376768-2.7859389.9714976-1.7050103.9643862-3.7976928-.0186768-5.4960611zm19.824 49.244h-49.084c-1.24905664-.0207995-2.39345883-.70224-3.00690375-1.7904773-.61344493-1.0882373-.60396677-2.4201261.02490375-3.4995227l24.542-42.962c.6041156-1.07975946 1.7447304-1.74859807 2.982-1.74859807s2.3778844.66883861 2.982 1.74859807l24.542 42.962c.6295226 1.0793111.6393266 2.4115444.0257567 3.5000035-.61357 1.088459-1.7584356 1.7697992-3.0077567 1.7899965z"/><path id="Shape" d="m42 31h-2v-9c0-1.6568542-1.3431458-3-3-3h-8.48c-1.3485805.0022252-2.5310943.9011644-2.894 2.2l-4.426 15.94-2.59.519 5.344-17.365c.1623717-.5279842-.1340158-1.0876283-.662-1.25s-1.0876283.1340158-1.25.662l-7.719 25.094-3.08-.771c-.5339666-.1297214-1.072566.1957027-1.2060974.7287292-.13353136.5330266.1880381 1.0739362.7200974 1.2112708 3.373.843 3.24.831 3.567.831.6266978-.0025106 1.2159833-.298634 1.592-.8h4.435c.5739972 1.220441 1.8013158 1.9994937 3.15 1.9994937s2.5760028-.7790527 3.15-1.9994937h7.113c.8336644 1.2491569 2.2362046 1.9993273 3.738 1.9993273s2.9043356-.7501704 3.738-1.9993273h2.76c1.1045695 0 2-.8954305 2-2v-9c0-2.209139-1.790861-4-4-4zm-14.446-9.264c.1191058-.4351545.5148402-.7366664.966-.736h8.48c.5522847 0 1 .4477153 1 1v9h-1c.0076473-1.2641221-.5957249-2.4541061-1.62-3.195.9380769-1.2320269.7810997-2.9762491-.3618822-4.020984s-2.8942537-1.0447349-4.0372356 0-1.2999591 2.7889571-.3618822 4.020984c-1.0152223.7484831-1.6158033 1.9336939-1.619 3.195v4h-5.129l1.242-4.473 1.18 1.18c.3923789.3789722 1.0160848.3735524 1.4018186-.0121814s.3911536-1.0094397.0121814-1.4018186l-1.98-1.979zm6.446 9.264c-1.1045695 0-2 .8954305-2 2v2h-1v-4c0-1.1045695.8954305-2 2-2s2 .8954305 2 2zm-2-5c0-.5522847.4477153-1 1-1s1 .4477153 1 1-.4477153 1-1 1-1-.4477153-1-1zm-8.5 20c-.8284271 0-1.5-.6715729-1.5-1.5s.6715729-1.5 1.5-1.5 1.5.6715729 1.5 1.5-.6715729 1.5-1.5 1.5zm14 0c-1.3807119 0-2.5-1.1192881-2.5-2.5s1.1192881-2.5 2.5-2.5 2.5 1.1192881 2.5 2.5-1.1192881 2.5-2.5 2.5zm6.5-2h-2.051c.1956706-1.7111384-.6071361-3.3829049-2.0649342-4.3000235s-3.3123335-.9171186-4.7701316 0-2.2606048 2.5888851-2.0649342 4.3000235h-6.1c-.2387865-1.7223098-1.7112159-3.0046811-3.45-3.0046811s-3.2112135 1.2823713-3.45 3.0046811h-3.39l1.283-4.167 4.258-.853c.3688431-.073595.6651976-.3479258.767-.71l.348-1.27h8.685c1.1045695 0 2-.8954305 2-2v-2h8c1.1045695 0 2 .8954305 2 2z"/></g></svg>