<?xml version="1.0" encoding="utf-8"?>
<!-- Generator: Adobe Illustrator 27.5.0, SVG Export Plug-In . SVG Version: 6.00 Build 0)  -->
<svg version="1.1" id="Layer_1" xmlns="http://www.w3.org/2000/svg" xmlns:xlink="http://www.w3.org/1999/xlink" x="0px" y="0px"
	 viewBox="0 0 32 32" style="enable-background:new 0 0 32 32;" xml:space="preserve">
<style type="text/css">
	.st0{fill:#137895;}
</style>
<g>
	<path class="st0" d="M23.2,17.3h-2.5c-0.5,0-0.8-0.4-0.8-0.8s0.4-0.8,0.8-0.8h2.5c0.5,0,0.8,0.4,0.8,0.8S23.6,17.3,23.2,17.3z"/>
	<path class="st0" d="M23.2,14h-2.5c-0.5,0-0.8-0.4-0.8-0.8s0.4-0.8,0.8-0.8h2.5c0.5,0,0.8,0.4,0.8,0.8S23.6,14,23.2,14z"/>
	<path class="st0" d="M23.2,10.7h-2.5c-0.5,0-0.8-0.4-0.8-0.8s0.4-0.8,0.8-0.8h2.5c0.5,0,0.8,0.4,0.8,0.8S23.6,10.7,23.2,10.7z"/>
	<path class="st0" d="M23.2,7.4h-2.5c-0.5,0-0.8-0.4-0.8-0.8c0-0.5,0.4-0.8,0.8-0.8h2.5c0.5,0,0.8,0.4,0.8,0.8
		C24,7.1,23.6,7.4,23.2,7.4z"/>
	<path class="st0" d="M17.8,19.2L17.6,19V5.5C17.6,3.6,16,2,14.1,2c-1.9,0-3.5,1.6-3.5,3.5V19l-0.2,0.2C8.9,20.3,8,22.1,8,23.9
		c0,3.3,2.7,6.1,6.1,6.1c3.3,0,6.1-2.7,6.1-6.1C20.2,22.1,19.3,20.3,17.8,19.2z M14.1,27.3c-1.8,0-3.3-1.5-3.3-3.3
		c0-1.6,1.1-2.9,2.5-3.2V9.9c0-0.5,0.4-0.8,0.8-0.8c0.5,0,0.8,0.4,0.8,0.8v10.8c1.4,0.4,2.5,1.7,2.5,3.2
		C17.4,25.8,15.9,27.3,14.1,27.3z"/>
	<path class="st0" d="M14.1,25.6c-0.9,0-1.7-0.8-1.7-1.7c0-0.9,0.8-1.7,1.7-1.7c0.9,0,1.7,0.8,1.7,1.7C15.8,24.9,15,25.6,14.1,25.6z
		"/>
</g>
</svg>
