<?xml version="1.0" encoding="utf-8"?>
<!-- Generator: Adobe Illustrator 27.5.0, SVG Export Plug-In . SVG Version: 6.00 Build 0)  -->
<svg version="1.1" id="Layer_1" xmlns="http://www.w3.org/2000/svg" xmlns:xlink="http://www.w3.org/1999/xlink" x="0px" y="0px"
	 viewBox="0 0 32 32" style="enable-background:new 0 0 32 32;" xml:space="preserve">
<style type="text/css">
	.st0{fill:#137895;}
</style>
<g>
	<g>
		<g>
			<path class="st0" d="M11.2,23.5c0.9,3.2,2.4,5.8,4,6.5v-6.5H11.2z"/>
		</g>
	</g>
	<g>
		<g>
			<path class="st0" d="M10.2,16.9c0.1,1.7,0.3,3.3,0.6,4.9h4.4v-4.9H10.2z"/>
		</g>
	</g>
	<g>
		<g>
			<path class="st0" d="M16.8,23.5V30c1.6-0.7,3.1-3.3,4-6.5H16.8z"/>
		</g>
	</g>
	<g>
		<g>
			<path class="st0" d="M8.6,16.9H2c0.1,1.7,0.5,3.4,1.2,4.9h5.9C8.8,20.3,8.6,18.6,8.6,16.9z"/>
		</g>
	</g>
	<g>
		<g>
			<path class="st0" d="M9.5,23.5H4.1c1.8,2.9,4.8,5.3,8.2,6.2C11.2,28.2,10.2,26,9.5,23.5z"/>
		</g>
	</g>
	<g>
		<g>
			<path class="st0" d="M22.5,23.5c-0.7,2.5-1.6,4.7-2.8,6.2c3.4-0.9,6.3-3.3,8.2-6.2H22.5z"/>
		</g>
	</g>
	<g>
		<g>
			<path class="st0" d="M23.4,16.9c0,1.7-0.2,3.3-0.6,4.9h5.9c0.7-1.5,1.1-3.2,1.2-4.9H23.4z"/>
		</g>
	</g>
	<g>
		<g>
			<path class="st0" d="M16.8,16.9v4.9h4.4c0.3-1.6,0.5-3.3,0.6-4.9H16.8z"/>
		</g>
	</g>
	<g>
		<g>
			<path class="st0" d="M16,2c-1.8,0-3.3,1.6-3.3,3.4s1.5,3.3,3.3,3.3s3.3-1.5,3.3-3.3S17.8,2,16,2z"/>
		</g>
	</g>
	<g>
		<g>
			<path class="st0" d="M25.9,5.4c-1.4,0-2.5,1.1-2.5,2.5s1.1,2.5,2.5,2.5s2.5-1.1,2.5-2.5S27.3,5.4,25.9,5.4z"/>
		</g>
	</g>
	<g>
		<g>
			<path class="st0" d="M6.1,5.4c-1.4,0-2.5,1.1-2.5,2.5s1.1,2.5,2.5,2.5s2.5-1.1,2.5-2.5S7.5,5.4,6.1,5.4z"/>
		</g>
	</g>
	<g>
		<g>
			<path class="st0" d="M28.3,11.2c-0.7,0.5-1.5,0.8-2.4,0.8c-0.9,0-1.7-0.3-2.4-0.8c-0.4,0.3-0.8,0.6-1,1c0.1,0.5,0.2,0.9,0.2,1.4
				v1.6h6.8c0.3,0,0.6-0.3,0.6-0.6C30,13.3,29.3,12,28.3,11.2z"/>
		</g>
	</g>
	<g>
		<g>
			<path class="st0" d="M18.8,9.6C18,10.1,17,10.4,16,10.4c-1,0-2-0.3-2.8-0.8c-1.4,0.9-2.2,2.6-2.2,4.3v0.6c0,0.5,0.4,0.8,0.8,0.8
				h8.3c0.5,0,0.8-0.4,0.8-0.8v-0.8C21,11.9,20.1,10.4,18.8,9.6z"/>
		</g>
	</g>
	<g>
		<g>
			<path class="st0" d="M8.5,11.2C7.8,11.7,7,12,6.1,12c-0.9,0-1.7-0.3-2.4-0.8C2.7,12,2,13.3,2,14.7v0.6h7.4v-1.6
				c0-0.5,0.1-0.9,0.2-1.4C9.3,11.8,8.9,11.5,8.5,11.2z"/>
		</g>
	</g>
</g>
</svg>
