<?xml version="1.0" encoding="utf-8"?>
<!-- Generator: Adobe Illustrator 27.5.0, SVG Export Plug-In . SVG Version: 6.00 Build 0)  -->
<svg version="1.1" id="Layer_1" xmlns="http://www.w3.org/2000/svg" xmlns:xlink="http://www.w3.org/1999/xlink" x="0px" y="0px"
	 viewBox="0 0 32 32" style="enable-background:new 0 0 32 32;" xml:space="preserve">
<style type="text/css">
	.st0{fill:#1A3958;}
	.st1{fill:#C0E1F0;}
</style>
<g>
	<circle class="st0" cx="16" cy="16" r="14"/>
	<g>
		<path class="st1" d="M15.6,19.1c-0.2,0-0.4-0.2-0.4-0.4c0-0.6,0.1-1.1,0.2-1.5c0.1-0.3,0.3-0.6,0.6-0.9c0.2-0.2,0.5-0.6,1-1
			c0.5-0.4,0.8-0.8,1-1.1s0.2-0.5,0.2-0.9c0-0.6-0.2-1.1-0.7-1.5c-0.4-0.4-1-0.6-1.6-0.6c-0.6,0-1.1,0.2-1.5,0.6
			c-0.3,0.3-0.5,0.7-0.7,1.2c-0.1,0.4-0.4,0.6-0.8,0.5c-0.5-0.1-0.8-0.5-0.6-1c0.2-0.7,0.5-1.2,1-1.7c0.7-0.6,1.5-0.9,2.6-0.9
			c1.1,0,2.1,0.3,2.7,0.9c0.7,0.6,1,1.4,1,2.3c0,0.5-0.1,1-0.4,1.4c-0.2,0.4-0.7,1-1.4,1.6c-0.5,0.4-0.8,0.7-0.9,0.9
			s-0.3,0.4-0.3,0.7c-0.1,0.2-0.1,0.5-0.1,0.8c0,0.2-0.2,0.4-0.4,0.4L15.6,19.1L15.6,19.1z M15.1,21.1c0-0.5,0.4-0.8,0.8-0.8
			c0.5,0,0.8,0.4,0.8,0.8S16.4,22,15.9,22C15.5,22,15.1,21.6,15.1,21.1L15.1,21.1z"/>
	</g>
</g>
</svg>
