<?xml version="1.0" encoding="utf-8"?>
<!-- Generator: Adobe Illustrator 27.5.0, SVG Export Plug-In . SVG Version: 6.00 Build 0)  -->
<svg version="1.1" id="Layer_1" xmlns="http://www.w3.org/2000/svg" xmlns:xlink="http://www.w3.org/1999/xlink" x="0px" y="0px"
	 viewBox="0 0 48 48" style="enable-background:new 0 0 48 48;" xml:space="preserve">
<style type="text/css">
	.st0{fill:#1A3958;}
	.st1{fill:#C0E1F0;}
</style>
<g>
	<circle class="st0" cx="24" cy="24" r="21"/>
	<g>
		<path class="st1" d="M23.4,28.6c-0.4,0-0.6-0.3-0.6-0.6c0-0.8,0.1-1.6,0.4-2.2c0.2-0.5,0.5-0.9,0.9-1.4c0.3-0.3,0.8-0.8,1.6-1.5
			c0.7-0.7,1.2-1.2,1.5-1.6c0.2-0.4,0.3-0.8,0.3-1.3c0-0.8-0.3-1.6-1-2.2c-0.7-0.6-1.5-1-2.4-1c-0.9,0-1.7,0.3-2.3,0.9
			c-0.4,0.4-0.8,1-1,1.8c-0.2,0.5-0.7,0.9-1.2,0.8c-0.7-0.1-1.1-0.8-0.9-1.4c0.3-1,0.8-1.9,1.5-2.5c1-0.9,2.3-1.3,3.9-1.3
			c1.7,0,3.1,0.5,4.1,1.4c1,0.9,1.5,2.1,1.5,3.4c0,0.8-0.2,1.5-0.5,2.1c-0.4,0.6-1.1,1.4-2.1,2.4c-0.7,0.6-1.2,1.1-1.4,1.4
			c-0.2,0.3-0.4,0.6-0.5,1C25,27,24.9,27.4,24.9,28c0,0.3-0.3,0.6-0.7,0.6L23.4,28.6L23.4,28.6z M22.7,31.7c0-0.7,0.6-1.2,1.2-1.2
			c0.7,0,1.2,0.6,1.2,1.2c0,0.7-0.6,1.2-1.2,1.2C23.2,32.9,22.7,32.4,22.7,31.7L22.7,31.7z"/>
	</g>
</g>
</svg>
