<?xml version="1.0" encoding="utf-8"?>
<!-- Generator: Adobe Illustrator 27.5.0, SVG Export Plug-In . SVG Version: 6.00 Build 0)  -->
<svg version="1.1" id="Layer_1" xmlns="http://www.w3.org/2000/svg" xmlns:xlink="http://www.w3.org/1999/xlink" x="0px" y="0px"
	 viewBox="0 0 32 32" style="enable-background:new 0 0 32 32;" xml:space="preserve">
<style type="text/css">
	.st0{fill:#FFFFFF;}
	.st1{fill:#1A3958;}
</style>
<g>
	<path class="st0" d="M9.3,3.7C2.6,7.4,0,15.8,3.7,22.6s12.2,9.3,18.9,5.7l5.4,1.6c0.1,0,0.3,0.1,0.4,0.1c0.2,0,0.3,0,0.4-0.1
		c0.8-0.2,1.3-1.1,1-1.9l-1.6-5.4c1.1-2,1.7-4.3,1.7-6.7C30,8.2,23.7,2,16,2C13.7,2,11.4,2.6,9.3,3.7z"/>
	<circle class="st1" cx="16" cy="9.8" r="1.6"/>
	<path class="st1" d="M17.5,23.8H16c-0.9,0-1.6-0.7-1.6-1.6V16c-0.9,0-1.6-0.7-1.6-1.6s0.7-1.6,1.6-1.6H16c0.9,0,1.6,0.7,1.6,1.6
		v6.2c0.9,0,1.6,0.7,1.6,1.6C19.1,23.1,18.4,23.8,17.5,23.8z"/>
</g>
</svg>
