<?xml version="1.0" encoding="utf-8"?>
<!-- Generator: Adobe Illustrator 27.5.0, SVG Export Plug-In . SVG Version: 6.00 Build 0)  -->
<svg version="1.1" id="Layer_1" xmlns="http://www.w3.org/2000/svg" xmlns:xlink="http://www.w3.org/1999/xlink" x="0px" y="0px"
	 viewBox="0 0 32 32" style="enable-background:new 0 0 32 32;" xml:space="preserve">
<style type="text/css">
	.st0{fill:#1B3958;}
	.st1{fill:#C0E1F0;}
</style>
<g>
	<circle class="st0" cx="16" cy="16" r="14"/>
	<g>
		<g>
			<path class="st1" d="M22.8,10.2H9.2c-0.8,0-1.5,0.7-1.5,1.5v8.7c0,0.8,0.7,1.5,1.5,1.5h13.6c0.8,0,1.5-0.6,1.5-1.5v-8.7
				C24.3,10.8,23.6,10.2,22.8,10.2z M22.6,11.1c-0.3,0.3-5.4,5.4-5.6,5.6c-0.3,0.3-0.6,0.4-1,0.4s-0.8-0.2-1-0.4
				c-0.1-0.1-5.2-5.2-5.6-5.6H22.6z M8.7,20.2v-8.3l4.2,4.2L8.7,20.2z M9.4,20.9l4.2-4.2l0.7,0.7c0.5,0.5,1.1,0.7,1.7,0.7
				c0.6,0,1.3-0.3,1.7-0.7l0.7-0.7l4.2,4.2H9.4z M23.3,20.2L19.1,16l4.2-4.2V20.2z"/>
		</g>
	</g>
</g>
</svg>
