<?xml version="1.0" encoding="utf-8"?>
<!-- Generator: Adobe Illustrator 27.5.0, SVG Export Plug-In . SVG Version: 6.00 Build 0)  -->
<svg version="1.1" id="Layer_1" xmlns="http://www.w3.org/2000/svg" xmlns:xlink="http://www.w3.org/1999/xlink" x="0px" y="0px"
	 viewBox="0 0 48 48" style="enable-background:new 0 0 48 48;" xml:space="preserve">
<style type="text/css">
	.st0{fill:#1B3958;}
	.st1{fill:#C0E1F0;}
</style>
<g>
	<circle class="st0" cx="24" cy="24" r="21"/>
	<g>
		<g>
			<path class="st1" d="M34.2,15.3H13.8c-1.2,0-2.2,1.1-2.2,2.2v13.1c0,1.2,1.1,2.2,2.2,2.2h20.4c1.2,0,2.2-0.9,2.2-2.2V17.5
				C36.4,16.2,35.4,15.3,34.2,15.3z M33.9,16.7c-0.5,0.4-8.1,8.1-8.4,8.4c-0.4,0.4-0.9,0.6-1.5,0.6s-1.2-0.3-1.5-0.6
				c-0.2-0.1-7.8-7.8-8.4-8.4H33.9z M13,30.3V17.9l6.3,6.3L13,30.3z M14.1,31.4l6.3-6.3l1,1.1c0.8,0.8,1.6,1.1,2.5,1.1
				s2-0.4,2.6-1.1l1-1.1l6.3,6.3C33.9,31.4,14.1,31.4,14.1,31.4z M34.9,30.3L28.7,24l6.3-6.3V30.3z"/>
		</g>
	</g>
</g>
</svg>
