<?xml version="1.0" encoding="utf-8"?>
<!-- Generator: Adobe Illustrator 27.5.0, SVG Export Plug-In . SVG Version: 6.00 Build 0)  -->
<svg version="1.1" id="Layer_1" xmlns="http://www.w3.org/2000/svg" xmlns:xlink="http://www.w3.org/1999/xlink" x="0px" y="0px"
	 viewBox="0 0 64 64" style="enable-background:new 0 0 64 64;" xml:space="preserve">
<style type="text/css">
	.st0{fill:#1A3958;}
</style>
<g>
	<g>
		<path class="st0" d="M55.5,6c0.6-1.5-4.7-0.8-15.7,4c-11,4.8-11,4.8-11,4.8s-4.6,0.1-6.5,4.6c-1.9,4.5-2.7,9.7-0.8,10.7
			c1.9,1-2,1.1-2,3.7c0,2.7,2.4,3.7,2.1,5c-0.3,1.2-2.9,9.9-2.4,9.9c0.5,0,3.2-10.3,3.7-10.7c0.6-0.4,3.1-2.1,1.9-5
			c-1.2-2.9,0.8-2.1,2-1.6c1.2,0.5,6.5-2.1,6.6-4.6c0.1-2.5-0.8-3,1.9-3.6c2.7-0.7,17.7-4.4,19-8.2c0.3-0.9-11.1-0.8-11.1-0.8
			S53.6,10.8,55.5,6z"/>
	</g>
	<g>
		<path class="st0" d="M17.1,58.7l-0.4-0.4c0.3-0.3,6.5-6.8,7.2-7.4c0.6-0.6,6.2-14.8,6.2-15.9c0-0.8,0.7-7.4,0.8-7.7l0.5,0.1
			c0,0.1-0.8,6.9-0.8,7.6c0,1-5.7,15.6-6.4,16.2C23.6,52,17.2,58.7,17.1,58.7z"/>
	</g>
	<g>
		<path class="st0" d="M61.6,56.3c-1.7-2.8-3.2-3.8-4.6-4.7c-0.5-0.3-0.9-0.6-1.4-1C53.8,49,43.9,38.5,43,37.2
			c-0.5-0.8-0.2-5.1,0.4-11c0.2-2.6,0.5-5.4,0.4-6.2c-0.9,0.6-4.4,4.2-6.6,6.4c-3.3,3.4-3.3,3.4-3.5,3.3c-0.1,0-0.4-0.1-1.5-4
			l0.5-0.1c0.4,1.4,0.9,3,1.1,3.5c0.5-0.4,1.8-1.4,3-2.7c4.5-4.7,6.5-6.3,7.1-6.3c0,0,0,0,0,0c0.1,0,0.2-0.3,0.2-0.2
			c0.2,0.3,0.2,1.4-0.3,6.6c-0.4,4-0.9,9.9-0.4,10.6c0.8,1.3,10.7,11.7,12.5,13.2c0.4,0.4,0.9,0.6,1.4,1c1.4,0.9,3,2,4.7,4.9
			L61.6,56.3z"/>
	</g>
	<g>
		<path class="st0" d="M4.3,48.5V48c0,0,1.6,0,5.4-2.2c3.8-2.1,9.6-9.1,10-10.1c0.2-0.5-0.8-5.9-1.5-9.9c-1.1-6.3-1.3-6.9-1-7.1
			l0.1,0.7l0.1,0c0,0,0,0,0,0c0.6,0,1.9,1.5,3.8,3.1l0.1-0.2c-1.6-1.8-3.4-3.1-4.1-3.7c0.1,1,1,4.5,1.5,7.1c1,5.9,1.6,9.5,1.4,10.1
			c-0.4,1-6,8.1-10,10.3C6,48.5,4.3,48.5,4.3,48.5z"/>
	</g>
	<g>
		<path class="st0" d="M17.3,35.4c-0.1,0-0.2,0-0.3,0C16.1,35.3,4.3,31.8,2,30.6l0.2-0.5c2.3,1.1,14.1,4.7,14.9,4.7
			c0.8,0.1,2.1-0.7,2.3-0.9c0,0,0-0.3,0-0.3h0.5c0,1.1-0.1,0.6-0.1,0.7C19.4,34.7,18.2,35.4,17.3,35.4z"/>
	</g>
	<g>
		<path class="st0" d="M22.6,18.7c-0.3-1.7-1.1-7.4-0.6-8.1c0.1-0.1,0.2-0.1,0.2-0.1c0.2,0,0.8-0.3,2.5,5.8l-0.4,0.3
			c-0.6-2.3-1.5-4.9-2-5.5c-0.2,0.9,0.1,4,0.6,7.1L22.6,18.7z"/>
	</g>
	<g>
		<path class="st0" d="M30.2,14.1c-0.1-1.6-0.2-4.5,0.3-4.9c0.1-0.1,0.2-0.1,0.3-0.1c0.6,0.2,2.2,2.7,2.7,3.5l-0.5,0.2
			c-0.8-1.3-1.8-2.8-2.2-3.2c-0.2,0.5-0.2,2.5-0.1,4.2L30.2,14.1z"/>
	</g>
</g>
</svg>
