<?xml version="1.0" encoding="utf-8"?>
<!-- Generator: Adobe Illustrator 27.5.0, SVG Export Plug-In . SVG Version: 6.00 Build 0)  -->
<svg version="1.1" id="Layer_1" xmlns="http://www.w3.org/2000/svg" xmlns:xlink="http://www.w3.org/1999/xlink" x="0px" y="0px"
	 viewBox="0 0 32 32" style="enable-background:new 0 0 32 32;" xml:space="preserve">
<style type="text/css">
	.st0{fill:#137895;}
</style>
<g>
	<path class="st0" d="M30,15.6c0-2.4-1.7-4.3-3.9-4.7c0.1-3.5-3.3-6.1-6.7-5.1C18.3,3.5,16,2,13.4,2C9.8,2,6.9,4.8,6.8,8.3
		C4,8.9,2,11.4,2,14.3c0,3.4,2.7,6.1,6.1,6.1h17.1C27.8,20.4,30,18.2,30,15.6z"/>
	<path class="st0" d="M21.2,21.8c-0.4-0.2-1,0-1.2,0.4l-1.8,3.5C18,26.3,18.4,27,19.1,27c0.3,0,0.6-0.2,0.8-0.5l1.8-3.5
		C21.8,22.5,21.6,22,21.2,21.8z"/>
	<path class="st0" d="M29.1,21.8c-0.4-0.2-1,0-1.2,0.4l-1.8,3.5c-0.3,0.6,0.1,1.3,0.8,1.3c0.3,0,0.6-0.2,0.8-0.5l1.8-3.5
		C29.7,22.5,29.5,22,29.1,21.8z"/>
	<path class="st0" d="M13.3,21.8c-0.4-0.2-1,0-1.2,0.4l-1.8,3.5c-0.3,0.6,0.1,1.3,0.8,1.3c0.3,0,0.6-0.2,0.8-0.5l1.8-3.5
		C13.9,22.5,13.8,22,13.3,21.8L13.3,21.8z"/>
	<path class="st0" d="M5.5,21.8c-0.4-0.2-1,0-1.2,0.4l-1.8,3.5C2.2,26.3,2.7,27,3.3,27c0.3,0,0.6-0.2,0.8-0.5L5.8,23
		C6.1,22.5,5.9,22,5.5,21.8z"/>
	<path class="st0" d="M16,24.9c-0.4-0.2-1,0-1.2,0.4L13,28.8c-0.3,0.6,0.1,1.3,0.8,1.3c0.3,0,0.6-0.2,0.8-0.5l1.8-3.5
		C16.6,25.6,16.4,25.1,16,24.9L16,24.9z"/>
	<path class="st0" d="M23.8,24.9c-0.4-0.2-1,0-1.2,0.4l-1.8,3.5C20.6,29.3,21,30,21.7,30c0.3,0,0.6-0.2,0.8-0.5l1.8-3.5
		C24.4,25.6,24.3,25.1,23.8,24.9L23.8,24.9z"/>
	<path class="st0" d="M8.1,24.9c-0.4-0.2-1,0-1.2,0.4l-1.8,3.5C4.9,29.3,5.3,30,5.9,30c0.3,0,0.6-0.2,0.8-0.5L8.5,26
		C8.7,25.6,8.5,25.1,8.1,24.9L8.1,24.9z"/>
</g>
</svg>
