<?xml version="1.0" encoding="utf-8"?>
<!-- Generator: Adobe Illustrator 27.5.0, SVG Export Plug-In . SVG Version: 6.00 Build 0)  -->
<svg version="1.1" id="Layer_1" xmlns="http://www.w3.org/2000/svg" xmlns:xlink="http://www.w3.org/1999/xlink" x="0px" y="0px"
	 viewBox="0 0 32 32" style="enable-background:new 0 0 32 32;" xml:space="preserve">
<style type="text/css">
	.st0{fill:#1A3958;}
</style>
<path class="st0" d="M28.2,6.6v18.8c0,1-0.7,2.4-3.9,3.4C22.1,29.6,19.1,30,16,30s-6.1-0.4-8.3-1.2c-3.2-1.1-3.9-2.5-3.9-3.4V6.6
	c0-1,0.7-2.4,3.9-3.4C9.9,2.4,12.9,2,16,2s6.1,0.4,8.3,1.2C27.5,4.3,28.2,5.6,28.2,6.6L28.2,6.6z M26.7,25.4v-4
	c-0.6,0.4-1.3,0.8-2.4,1.1c-2.2,0.8-5.2,1.2-8.3,1.2s-6.1-0.4-8.3-1.2c-1.1-0.4-1.8-0.7-2.4-1.1v4c0,0.5,0.8,1.3,2.9,2.1
	c2.1,0.7,4.9,1.1,7.9,1.1s5.8-0.4,7.9-1.1C26,26.7,26.7,25.9,26.7,25.4z M26.7,19.1v-4c-0.6,0.4-1.3,0.8-2.4,1.1
	c-2.2,0.8-5.2,1.2-8.3,1.2s-6.1-0.4-8.3-1.2c-1.1-0.4-1.8-0.7-2.4-1.1v4c0,0.5,0.8,1.3,2.9,2.1c2.1,0.7,4.9,1.1,7.9,1.1
	s5.8-0.4,7.9-1.1C26,20.5,26.7,19.6,26.7,19.1z M26.7,12.9v-4c-0.6,0.4-1.3,0.8-2.4,1.1c-2.2,0.8-5.2,1.2-8.3,1.2S9.9,10.8,7.7,10
	C6.6,9.7,5.8,9.3,5.3,8.9v4c0,0.5,0.8,1.3,2.9,2.1C10.2,15.6,13,16,16,16s5.8-0.4,7.9-1.1C26,14.2,26.7,13.4,26.7,12.9L26.7,12.9z
	 M26.7,6.6c0-0.5-0.8-1.3-2.9-2.1C21.8,3.8,19,3.5,16,3.5s-5.8,0.4-7.9,1.1C6,5.3,5.3,6.1,5.3,6.6S6,7.9,8.1,8.7
	C10.2,9.4,13,9.8,16,9.8s5.8-0.4,7.9-1.1C26,7.9,26.7,7.1,26.7,6.6z"/>
</svg>
