<?xml version="1.0" encoding="utf-8"?>
<!-- Generator: Adobe Illustrator 27.5.0, SVG Export Plug-In . SVG Version: 6.00 Build 0)  -->
<svg version="1.1" id="Layer_1" xmlns="http://www.w3.org/2000/svg" xmlns:xlink="http://www.w3.org/1999/xlink" x="0px" y="0px"
	 viewBox="0 0 32 32" style="enable-background:new 0 0 32 32;" xml:space="preserve">
<style type="text/css">
	.st0{fill:#1A3958;}
</style>
<g>
	<g>
		<path class="st0" d="M26.7,4h-3.1V2h-2.2v2H10.5V2H8.3v2H5.3C3.5,4,2,5.4,2,7.2v19.5C2,28.5,3.5,30,5.3,30h21.4
			c1.8,0,3.3-1.5,3.3-3.3V7.2C30,5.4,28.5,4,26.7,4z M27.8,26.7c0,0.6-0.5,1.1-1.1,1.1H5.3c-0.6,0-1.1-0.5-1.1-1.1v-14h23.6V26.7z
			 M27.8,10.5H4.2V7.2c0-0.6,0.5-1.1,1.1-1.1h3.1v2.2h2.2V6.2h10.9v2.2h2.2V6.2h3.1c0.6,0,1.1,0.5,1.1,1.1V10.5z"/>
	</g>
</g>
</svg>
