<?xml version="1.0" encoding="utf-8"?>
<!-- Generator: Adobe Illustrator 27.5.0, SVG Export Plug-In . SVG Version: 6.00 Build 0)  -->
<svg version="1.1" id="Layer_1" xmlns="http://www.w3.org/2000/svg" xmlns:xlink="http://www.w3.org/1999/xlink" x="0px" y="0px"
	 viewBox="0 0 32 32" style="enable-background:new 0 0 32 32;" xml:space="preserve">
<style type="text/css">
	.st0{fill:#1A3958;}
</style>
<g>
	<path class="st0" d="M27.1,28.7H4.9c-1.6,0-2.9-1.3-2.9-2.9V6.1c0-1.6,1.3-2.8,2.8-2.9h7.7c1.1,0,2.1,0.6,2.6,1.6l1.8,3.5h10.3
		c1.6,0,2.9,1.3,2.9,2.9v14.6C30,27.4,28.7,28.7,27.1,28.7z M12.5,5.8H4.8C4.7,5.8,4.5,6,4.5,6.1v19.7c0,0.2,0.1,0.3,0.3,0.3h22.3
		c0.2,0,0.3-0.1,0.3-0.3V11.2c0-0.2-0.1-0.3-0.3-0.3H16c-0.5,0-0.9-0.3-1.1-0.7L12.8,6C12.7,5.9,12.6,5.8,12.5,5.8z"/>
</g>
</svg>
