<?xml version="1.0" encoding="utf-8"?>
<!-- Generator: Adobe Illustrator 27.5.0, SVG Export Plug-In . SVG Version: 6.00 Build 0)  -->
<svg version="1.1" id="Layer_1" xmlns="http://www.w3.org/2000/svg" xmlns:xlink="http://www.w3.org/1999/xlink" x="0px" y="0px"
	 viewBox="0 0 32 32" style="enable-background:new 0 0 32 32;" xml:space="preserve">
<style type="text/css">
	.st0{fill:#1A3958;}
</style>
<g>
	<path class="st0" d="M21.7,5.3V3.6h-3.4C18,2.7,17.1,2,16,2s-2,0.7-2.3,1.6h-3.4v1.6H5.3V30h21.3V5.3H21.7z M11.9,5.3h3.3V4.5
		c0-0.5,0.4-0.8,0.8-0.8s0.8,0.4,0.8,0.8v0.8h3.3v1.6h-8.2V5.3z M25,28.4H7V6.9h3.3v1.6h11.5V6.9H25V28.4z"/>
	<rect x="10.3" y="13.5" class="st0" width="11.5" height="1.6"/>
	<rect x="10.3" y="18.5" class="st0" width="9.8" height="1.6"/>
	<rect x="10.3" y="23.4" class="st0" width="6.6" height="1.6"/>
</g>
</svg>
