<?xml version="1.0" encoding="utf-8"?>
<!-- Generator: Adobe Illustrator 27.5.0, SVG Export Plug-In . SVG Version: 6.00 Build 0)  -->
<svg version="1.1" id="Layer_1" xmlns="http://www.w3.org/2000/svg" xmlns:xlink="http://www.w3.org/1999/xlink" x="0px" y="0px"
	 viewBox="0 0 32 32" style="enable-background:new 0 0 32 32;" xml:space="preserve">
<style type="text/css">
	.st0{fill:#1A3958;}
</style>
<g id="layer1">
	<path id="path6568" class="st0" d="M12.4,2.3c-0.3,0.4-0.2,0.9,0.1,1.1l1.1,0.9c-4.5,0.9-8,4.2-9.2,8.4c-0.1,0.4,0.1,0.9,0.6,1
		c0.4,0.1,0.9-0.1,1-0.6c1-3.6,4-6.5,7.9-7.3L13,7.1c-0.3,0.4-0.2,0.9,0.2,1.1c0.4,0.3,0.9,0.2,1.1-0.2l2.1-2.7
		c0.3-0.4,0.2-0.9-0.2-1.1l-2.7-2.1C13.2,1.9,12.6,2,12.4,2.3L12.4,2.3z M18.3,5.1c-0.1,0.4,0.1,0.9,0.6,1c3.6,1,6.5,4,7.3,7.9
		L24.9,13c-0.4-0.3-0.9-0.2-1.1,0.2c-0.3,0.4-0.2,0.9,0.2,1.1l2.7,2.1c0.4,0.3,0.9,0.2,1.1-0.2l2.1-2.7c0.3-0.4,0.2-0.9-0.1-1.1
		c-0.4-0.3-0.9-0.2-1.1,0.1l-0.9,1.1c-0.9-4.5-4.2-8-8.4-9.2C18.8,4.4,18.4,4.7,18.3,5.1L18.3,5.1z M4.9,15.4
		c-0.2,0-0.4,0.1-0.6,0.3l-2.1,2.7c-0.3,0.4-0.2,0.9,0.2,1.1c0.4,0.3,0.9,0.2,1.1-0.1l0.9-1.1c0.9,4.5,4.2,8,8.4,9.2
		c0.4,0.1,0.9-0.1,1-0.6c0.1-0.4-0.1-0.9-0.6-1c-3.6-1-6.5-4-7.3-7.9L7.1,19c0.4,0.3,0.9,0.2,1.1-0.1c0.3-0.4,0.2-0.9-0.2-1.1
		l-2.7-2.1C5.2,15.5,5,15.4,4.9,15.4L4.9,15.4z M25.9,18.8c-1,3.6-4,6.5-7.9,7.3l0.9-1.2c0.3-0.4,0.2-0.9-0.1-1.1
		c-0.5-0.3-0.9-0.2-1.1,0.2l-2.1,2.7c-0.3,0.4-0.2,0.9,0.2,1.1l2.7,2.1c0.4,0.3,0.9,0.2,1.1-0.1c0.3-0.4,0.2-0.9-0.1-1.1l-1.1-0.9
		c4.5-0.9,7.9-4.2,9.1-8.4c0.1-0.4-0.1-0.9-0.6-1C26.3,18.1,26,18.5,25.9,18.8L25.9,18.8z"/>
</g>
</svg>
