<?xml version="1.0" encoding="utf-8"?>
<!-- Generator: Adobe Illustrator 27.5.0, SVG Export Plug-In . SVG Version: 6.00 Build 0)  -->
<svg version="1.1" id="Layer_1" xmlns="http://www.w3.org/2000/svg" xmlns:xlink="http://www.w3.org/1999/xlink" x="0px" y="0px"
	 viewBox="0 0 32 32" style="enable-background:new 0 0 32 32;" xml:space="preserve">
<style type="text/css">
	.st0{fill:#FFFFFF;}
</style>
<g>
	<path class="st0" d="M29.3,25.1L27.1,24l-0.8-3c0.1-0.3,0.2-0.5,0.2-0.9c0-1-0.7-1.7-1.7-1.8c0.3-1.2-1.7-4.5-4.4-4.7
		C20.6,11,13.5,2,10.3,2C9.7,2,8.8,2.3,8.6,4.1c-0.2,1.9,2.3,4.4,5,6.4c-2.5-0.9-5.1-1.6-6.2-1c-0.4,0.2-1,0.8-0.5,2.2
		c0.9,2,5.9,2.8,9,3.1c-2.7,0.9-10.6,3.6-9.9,6.4c0.1,0.8,0.8,1.3,2.1,0.7c1.8-1,8-3.9,9.9-4c0.1,0.3,0.4,0.7,0.8,1.2l-2.6-0.4
		c-0.1,0-0.3,0-0.3,0.1c-0.1,0.1-0.1,0.2-0.1,0.3l0.3,2.1L15,21.7C8.9,23,9.1,22.9,9,23l-6.2,2.2c-0.2,0.1-0.3,0.3-0.3,0.6
		C2.6,26,2.8,26.1,3.1,26l6.2-2.2c6.4-1.3,6-1.2,6.1-1.3l0.7-0.3l0.3,2.4l-2.2,4.8c-0.1,0.2,0,0.5,0.2,0.6c0.2,0.1,0.5,0,0.6-0.2
		l2.3-4.9c0-0.1,0-0.2,0-0.2l-0.3-2.7l3.5-1.5L22,23l-0.4,3.6c0,0.1,0,0.3,0.1,0.3l2.6,2.7c0.2,0.2,0.4,0.2,0.6,0
		c0.2-0.2,0.2-0.4,0-0.6l-2.4-2.6l0.3-3.6c0-0.1,0-0.2,0-0.3l-1.4-2.2c0.5,0,1-0.1,1.5-0.3v0c0,1,0.8,1.8,1.8,1.8c0.1,0,0.3,0,0.4,0
		l-1,3.4c0,0.1,0,0.3,0.1,0.4l2.4,3.3c0.1,0.2,0.4,0.2,0.6,0.1c0.2-0.1,0.2-0.4,0.1-0.6L25,25.2l0.8-2.6l0.5,1.8
		c0,0.1,0.1,0.2,0.2,0.3l2.4,1.2c0.2,0.1,0.5,0,0.6-0.2C29.6,25.5,29.5,25.2,29.3,25.1L29.3,25.1z M9.4,4.2C9.5,3.5,9.7,3,10.1,3
		c1.9-0.5,6.3,4.9,7.5,6.6c1.7,2.4,2.1,3.7,2,4.1C17.5,12.4,9.2,7,9.4,4.2L9.4,4.2z M9,18.7c0.7-0.4,1.5-0.8,2.4-1.2
		c0.6,0.3,0.8,0.8,0.7,1.6c-0.8,0.4-1.7,0.7-2.3,1.1C9.7,19.5,9.4,19,9,18.7z M12.3,17.1c0.8-0.3,1.6-0.6,2.4-0.9
		c0.7,0.3,0.9,0.8,0.8,1.5c-0.8,0.3-1.7,0.6-2.6,1C13,18,12.7,17.5,12.3,17.1z M15.7,15.8c0.6-0.2,1.1-0.3,1.7-0.5
		c0,0.5,0,1.2,0.3,1.8c-0.3,0-0.8,0.1-1.3,0.3C16.4,16.7,16.2,16.2,15.7,15.8L15.7,15.8z M7.7,11.3c-0.1-0.3-0.3-0.7-0.1-1
		c1.1-1.2,9.3,2.1,10.3,3.7C15.8,14,8.5,13.3,7.7,11.3z M7.7,21.1c-0.9,0.5-0.8,0-0.9-0.1c-0.1-0.6,0.4-1.2,1.3-1.9
		c0.5,0.3,0.7,0.7,0.7,1.4C8.3,20.8,7.8,21,7.7,21.1L7.7,21.1z M16.6,19.7L19,20l-2.2,1L16.6,19.7z M20.6,19.4
		c-1.2-0.5-2.4-2.2-2.3-4.4c0.2,0,0.4-0.3,1.4-0.5c2.8-0.4,4.6,3.1,4.3,3.7C23.8,18.8,21.9,19.9,20.6,19.4z M23.8,20.1
		c0-0.5,0.4-0.9,0.9-0.9s0.9,0.4,0.9,0.9c0,0.5-0.4,0.9-0.9,0.9S23.8,20.6,23.8,20.1z"/>
</g>
</svg>
