<?xml version="1.0" encoding="utf-8"?>
<!-- Generator: Adobe Illustrator 27.5.0, SVG Export Plug-In . SVG Version: 6.00 Build 0)  -->
<svg version="1.1" id="Layer_1" xmlns="http://www.w3.org/2000/svg" xmlns:xlink="http://www.w3.org/1999/xlink" x="0px" y="0px"
	 viewBox="0 0 32 32" style="enable-background:new 0 0 32 32;" xml:space="preserve">
<style type="text/css">
	.st0{fill:#FFFFFF;}
</style>
<path class="st0" d="M29.5,2.5c-0.7-0.7-1.8-0.7-2.5,0l-11,11L5,2.5c-0.7-0.7-1.8-0.7-2.5,0C1.8,3.2,1.8,4.3,2.5,5l11,11l-11,11
	c-0.7,0.7-0.7,1.8,0,2.5C2.9,29.8,3.3,30,3.8,30s0.9-0.2,1.3-0.5l11-11l11,11c0.3,0.3,0.8,0.5,1.3,0.5s0.9-0.2,1.3-0.5
	c0.7-0.7,0.7-1.8,0-2.5l-11-11l11-11C30.2,4.3,30.2,3.2,29.5,2.5z"/>
</svg>
