<?xml version="1.0" encoding="utf-8"?>
<!-- Generator: Adobe Illustrator 27.5.0, SVG Export Plug-In . SVG Version: 6.00 Build 0)  -->
<svg version="1.1" id="Layer_1" xmlns="http://www.w3.org/2000/svg" xmlns:xlink="http://www.w3.org/1999/xlink" x="0px" y="0px"
	 viewBox="0 0 32 32" style="enable-background:new 0 0 32 32;" xml:space="preserve">
<style type="text/css">
	.st0{fill:#FFFFFF;}
</style>
<g>
	<path class="st0" d="M30,24v4c0,1.1-0.9,2-2,2H4c-1.1,0-2-0.9-2-2v-4c0-0.6,0.4-1,1-1s1,0.4,1,1v4h24v-4c0-0.6,0.4-1,1-1
		S30,23.4,30,24z"/>
	<path class="st0" d="M8.3,16.7c-0.4-0.4-0.4-1,0-1.4c0.4-0.4,1-0.4,1.4,0l5.3,5.3V3c0-0.6,0.4-1,1-1c0.6,0,1,0.4,1,1v17.6l5.3-5.3
		c0.4-0.4,1-0.4,1.4,0s0.4,1,0,1.4l-7,7c-0.4,0.4-1,0.4-1.4,0L8.3,16.7z"/>
</g>
</svg>
