<?xml version="1.0" encoding="utf-8"?>
<!-- Generator: Adobe Illustrator 27.5.0, SVG Export Plug-In . SVG Version: 6.00 Build 0)  -->
<svg version="1.1" id="Layer_1" xmlns="http://www.w3.org/2000/svg" xmlns:xlink="http://www.w3.org/1999/xlink" x="0px" y="0px"
	 viewBox="0 0 32 32" style="enable-background:new 0 0 32 32;" xml:space="preserve">
<style type="text/css">
	.st0{fill:#137895;}
</style>
<g>
	<g>
		<g>
			<path class="st0" d="M14.8,16.4V3.8c0-0.3-0.3-0.6-0.6-0.6C7.5,3.2,2,9.2,2,16.6S8,30,15.4,30c3.3,0,5.1-0.6,7.4-2.5
				c0.2-0.2,0.3-0.6,0.1-0.8L14.8,16.4z M15.4,28.8c-6.8,0-12.2-5.5-12.2-12.2C3.2,10,7.8,4.7,13.7,4.3v12.2c0,0.1,0,0.3,0.1,0.4
				l7.8,10C19.8,28.4,18.2,28.8,15.4,28.8z"/>
			<path class="st0" d="M16.6,16h12.8c0.3,0,0.6-0.3,0.6-0.6C30,8,24,2,16.6,2C16.3,2,16,2.3,16,2.6v12.8C16,15.7,16.3,16,16.6,16z
				 M17.2,3.2c6.3,0.3,11.4,5.4,11.7,11.7H17.2V3.2z"/>
			<path class="st0" d="M29.4,17.2H17.7c-0.2,0-0.4,0.1-0.5,0.3c-0.1,0.2-0.1,0.4,0.1,0.6l7.6,9.4c0.1,0.1,0.3,0.2,0.4,0.2
				c0,0,0,0,0,0c0.1,0,0.3-0.1,0.4-0.2c2.7-2.5,4.3-6.1,4.3-9.8C30,17.4,29.7,17.2,29.4,17.2z M25.4,26.3L19,18.3h9.8
				C28.7,21.3,27.4,24.1,25.4,26.3z"/>
		</g>
	</g>
</g>
</svg>
