<?xml version="1.0" encoding="utf-8"?>
<!-- Generator: Adobe Illustrator 27.5.0, SVG Export Plug-In . SVG Version: 6.00 Build 0)  -->
<svg version="1.1" id="Layer_1" xmlns="http://www.w3.org/2000/svg" xmlns:xlink="http://www.w3.org/1999/xlink" x="0px" y="0px"
	 viewBox="0 0 32 32" style="enable-background:new 0 0 32 32;" xml:space="preserve">
<style type="text/css">
	.st0{fill:#FFFFFF;}
</style>
<g>
	<path class="st0" d="M18.4,26.4h-0.6V11.5c0-1-0.8-1.8-1.8-1.8h-1.2c-0.8,0-1.5,0.5-1.7,1.2c-0.3,0.9,0.2,1.9,1.1,2.3v13.2h-0.6
		c-1,0-1.8,0.8-1.8,1.8s0.8,1.8,1.8,1.8h4.8c1,0,1.8-0.8,1.8-1.8S19.4,26.4,18.4,26.4z"/>
	<path class="st0" d="M16,6.8c1.3,0,2.4-1.1,2.4-2.4C18.4,3.1,17.3,2,16,2s-2.4,1.1-2.4,2.4C13.6,5.7,14.7,6.8,16,6.8z"/>
</g>
</svg>
