<?xml version="1.0" encoding="utf-8"?>
<!-- Generator: Adobe Illustrator 27.5.0, SVG Export Plug-In . SVG Version: 6.00 Build 0)  -->
<svg version="1.1" id="Layer_1" xmlns="http://www.w3.org/2000/svg" xmlns:xlink="http://www.w3.org/1999/xlink" x="0px" y="0px"
	 viewBox="0 0 32 32" style="enable-background:new 0 0 32 32;" xml:space="preserve">
<style type="text/css">
	.st0{fill:#FFFFFF;}
</style>
<path class="st0" d="M29.9,21.2C30,21,30,20.7,30,20.5c0-0.2,0.1-3.7-1.3-5.3c-0.2-1.2-1-3.1-2.8-3.6C25,9.8,23.4,8.7,21.4,9
	c-0.8-1.6-3.2-1.9-4.9-1.3c-1.5-1.2-4-0.9-5.6,0.1c-1.6-0.6-2.8-0.5-4,0.5h0C5.7,8.4,2,9.7,2,12.5c0,2.3,1.5,4.2,3.3,4.4
	c0.9,1.6,2.3,2,3.6,1.3c0.6,0.7,1.3,1.3,2.2,1.3c0.7,0,1.2-0.1,1.5-0.2c0.9,1.3,1.9,1.4,3.2,1.1c1,1.6,2.7,2,4,1.5
	c0.7,1.1,1.8,1.7,3.2,1.3c0.7,1.2,2.2,2.1,3.5,1.8C28.3,25.4,30.4,23.6,29.9,21.2L29.9,21.2z M3,12.5c0-1.5,1.5-2.4,2.6-2.8
	c-0.7,1-1.1,2.3-1.1,3.8c0,0.8,0.1,1.6,0.3,2.2C3.8,15.3,3,14.1,3,12.5z M7.5,17.5c-0.4,0-1-0.4-1.4-1.3c0,0,0,0,0,0
	c-0.3-0.6-0.5-1.5-0.5-2.7c0-1.8,0.8-3.4,1.8-4.2c0,0,0,0,0,0C8.3,8.4,9,8.4,9.9,8.6c-1.7,1.7-2.4,4.3-2.4,5.9c0,1,0.3,2,0.8,2.9
	C8.1,17.4,7.9,17.5,7.5,17.5z M11,18.5c-0.9,0-2.5-1.9-2.5-4C8.5,12.4,9.8,8,14,8c0.6,0,1.1,0.1,1.4,0.3c-2.1,1.2-3.9,3.9-3.9,7.2
	c0,1.2,0.2,2.2,0.5,2.9C11.8,18.4,11.5,18.5,11,18.5L11,18.5z M14.5,19.5c-0.3,0-2-0.7-2-4c0-4,2.9-7,5.5-7c1.4,0,2.1,0.5,2.4,0.8
	c-2.5,1-5.4,3.9-5.4,7.7c0,1,0.1,1.8,0.4,2.4C15.1,19.5,14.8,19.5,14.5,19.5z M18.5,21c-0.1,0-2.5,0-2.5-4c0-4.1,3.9-7,6-7
	c1.4,0,2.2,0.8,2.7,1.5C21.4,11.7,19,15.1,19,18c0,0.8,0.1,1.9,0.4,2.9C19.3,21,19,21,18.5,21z M21.3,21.9c-0.8-0.6-1.3-2-1.3-3.9
	c0-2.5,2.2-5.5,5-5.5c1.4,0,2.1,1.2,2.4,2c-2.1-0.4-4.9,1.8-4.9,6.5c0,0.4,0.1,0.8,0.2,1.2C22.1,22.3,21.6,22.2,21.3,21.9L21.3,21.9
	z M23.8,22.3c-0.2-0.4-0.3-0.8-0.3-1.3c0-4.8,3.2-6.3,4.4-5.1c0.8,0.8,1,2.8,1.1,4c-0.4-0.3-0.9-0.4-1.5-0.4c-1.4,0-2.5,1.2-2.5,2.5
	c0,0.7,0.1,1.4,0.4,1.9C24.8,23.6,24.1,23.2,23.8,22.3z M27,24c-1,0-1-1.8-1-2c0-0.8,0.7-1.5,1.5-1.5c1,0,1.5,0.5,1.5,1.5
	C29,23,28.2,24,27,24z"/>
</svg>
