<?xml version="1.0" encoding="utf-8"?>
<!-- Generator: Adobe Illustrator 27.5.0, SVG Export Plug-In . SVG Version: 6.00 Build 0)  -->
<svg version="1.1" id="Layer_1" xmlns="http://www.w3.org/2000/svg" xmlns:xlink="http://www.w3.org/1999/xlink" x="0px" y="0px"
	 viewBox="0 0 32 32" style="enable-background:new 0 0 32 32;" xml:space="preserve">
<style type="text/css">
	.st0{fill:#FFFFFF;}
</style>
<g>
	<path class="st0" d="M25.9,2H9.4C9.2,2,9,2.1,8.8,2.2L2.2,8.8C2.1,9,2,9.2,2,9.4v16.5C2,28.2,3.8,30,6.1,30h19.8
		c2.3,0,4.1-1.8,4.1-4.1V6.1C30,3.8,28.2,2,25.9,2z M8.6,4.8v1.3c0,1.4-1.1,2.5-2.5,2.5H4.8L8.6,4.8z M28.4,25.9
		c0,1.4-1.1,2.5-2.5,2.5H6.1c-1.4,0-2.5-1.1-2.5-2.5V10.2h2.5c2.3,0,4.1-1.8,4.1-4.1V3.6h15.6c1.4,0,2.5,1.1,2.5,2.5V25.9z
		 M23.4,11.1c0,0.5-0.4,0.8-0.8,0.8H16c-0.5,0-0.8-0.4-0.8-0.8s0.4-0.8,0.8-0.8h6.6C23,10.2,23.4,10.6,23.4,11.1z M23.4,16
		c0,0.5-0.4,0.8-0.8,0.8H9.4c-0.5,0-0.8-0.4-0.8-0.8s0.4-0.8,0.8-0.8h13.2C23,15.2,23.4,15.5,23.4,16z M23.4,20.9
		c0,0.5-0.4,0.8-0.8,0.8H9.4c-0.5,0-0.8-0.4-0.8-0.8c0-0.5,0.4-0.8,0.8-0.8h13.2C23,20.1,23.4,20.5,23.4,20.9z"/>
</g>
</svg>
