<?xml version="1.0" encoding="utf-8"?>
<!-- Generator: Adobe Illustrator 27.5.0, SVG Export Plug-In . SVG Version: 6.00 Build 0)  -->
<svg version="1.1" id="Layer_1" xmlns="http://www.w3.org/2000/svg" xmlns:xlink="http://www.w3.org/1999/xlink" x="0px" y="0px"
	 viewBox="0 0 32 32" style="enable-background:new 0 0 32 32;" xml:space="preserve">
<style type="text/css">
	.st0{fill:#FFFFFF;}
</style>
<path class="st0" d="M3.4,24.4h18.2c0.8,0,1.4,0.6,1.4,1.4c0,0.8-0.6,1.4-1.4,1.4H3.4c-0.8,0-1.4-0.6-1.4-1.4
	C2,25,2.6,24.4,3.4,24.4z M30,16c0-0.8-0.6-1.4-1.4-1.4H3.4C2.6,14.6,2,15.2,2,16s0.6,1.4,1.4,1.4h25.2C29.4,17.4,30,16.8,30,16z
	 M17.4,6.2c0-0.8-0.6-1.4-1.4-1.4H3.4C2.6,4.8,2,5.4,2,6.2s0.6,1.4,1.4,1.4H16C16.8,7.6,17.4,7,17.4,6.2z"/>
</svg>
