<?xml version="1.0" encoding="utf-8"?>
<!-- Generator: Adobe Illustrator 27.5.0, SVG Export Plug-In . SVG Version: 6.00 Build 0)  -->
<svg version="1.1" id="Layer_1" xmlns="http://www.w3.org/2000/svg" xmlns:xlink="http://www.w3.org/1999/xlink" x="0px" y="0px"
	 viewBox="0 0 32 32" style="enable-background:new 0 0 32 32;" xml:space="preserve">
<style type="text/css">
	.st0{fill:#FFFFFF;}
</style>
<g>
	<path class="st0" d="M25.4,24.4C25.8,24,26,23.5,26,23V6.3c0-0.5-0.2-1-0.6-1.4c-0.4-0.4-0.9-0.6-1.4-0.6h-2.1V3.6
		c0-0.3-0.2-0.5-0.5-0.5c-0.3,0-0.5,0.2-0.5,0.5v0.7H17V3.6c0-0.3-0.2-0.5-0.5-0.5c-0.3,0-0.5,0.2-0.5,0.5v0.7H12V3.6
		c0-0.3-0.2-0.5-0.5-0.5s-0.5,0.2-0.5,0.5v0.7H7.1V3.6c0-0.3-0.2-0.5-0.5-0.5c-0.3,0-0.5,0.2-0.5,0.5v0.7H4c-0.5,0-1,0.2-1.4,0.6
		C2.2,5.2,2,5.8,2,6.3V23c0,0.5,0.2,1,0.6,1.4C3,24.7,3.5,24.9,4,24.9h20C24.5,24.9,25.1,24.7,25.4,24.4z M24.7,23.7
		C24.5,23.9,24.3,24,24,24h-2.6v-3.6H25V23C25,23.2,24.9,23.5,24.7,23.7z M16.8,15.7h3.6v3.6h-3.6V15.7z M15.9,19.3h-3.6v-3.6h3.6
		V19.3z M21.4,15.7H25v3.6h-3.6V15.7z M21.4,14.7v-3.6H25v3.6H21.4z M20.4,14.7h-3.6v-3.6h3.6V14.7z M15.9,14.7h-3.6v-3.6h3.6V14.7z
		 M11.2,14.7H7.6v-3.6h3.6V14.7z M6.6,14.7H3v-3.6h3.6L6.6,14.7L6.6,14.7z M6.6,15.7v3.6H3v-3.6H6.6z M7.6,15.7h3.6v3.6H7.6V15.7z
		 M11.2,20.3V24H7.6v-3.6H11.2z M12.2,20.3h3.6V24h-3.6V20.3z M16.8,20.3h3.6V24h-3.6V20.3z M3.3,5.6C3.5,5.4,3.7,5.3,4,5.3h2.1V6
		c0,0.3,0.2,0.5,0.5,0.5c0.3,0,0.5-0.2,0.5-0.5V5.3h3.9V6c0,0.3,0.2,0.5,0.5,0.5S12,6.3,12,6V5.3H16V6c0,0.3,0.2,0.5,0.5,0.5
		C16.7,6.5,17,6.3,17,6V5.3h3.9V6c0,0.3,0.2,0.5,0.5,0.5c0.3,0,0.5-0.2,0.5-0.5V5.3H24c0.3,0,0.5,0.1,0.7,0.3C24.9,5.8,25,6,25,6.3
		v3.8H3V6.3C3,6,3.1,5.8,3.3,5.6L3.3,5.6z M3.3,23.7C3.1,23.5,3,23.2,3,23v-2.6h3.6V24H4C3.7,24,3.5,23.9,3.3,23.7z"/>
	<path class="st0" d="M28,8.3h-0.5c-0.3,0-0.5,0.2-0.5,0.5c0,0.3,0.2,0.5,0.5,0.5H28c0.6,0,1,0.5,1,1v16.6c0,0.3-0.1,0.5-0.3,0.7
		C28.5,27.8,28.3,28,28,28H8c-0.3,0-0.5-0.1-0.7-0.3C7.1,27.5,7,27.2,7,26.9v-0.4C7,26.2,6.7,26,6.5,26C6.2,26,6,26.2,6,26.5v0.4
		c0,0.5,0.2,1,0.6,1.4C7,28.7,7.5,28.9,8,28.9h20c0.5,0,1-0.2,1.4-0.6c0.4-0.4,0.6-0.9,0.6-1.4V10.3C30,9.2,29.1,8.3,28,8.3z"/>
</g>
</svg>
