<?xml version="1.0" encoding="utf-8"?>
<!-- Generator: Adobe Illustrator 27.5.0, SVG Export Plug-In . SVG Version: 6.00 Build 0)  -->
<svg version="1.1" id="Layer_1" xmlns="http://www.w3.org/2000/svg" xmlns:xlink="http://www.w3.org/1999/xlink" x="0px" y="0px"
	 viewBox="0 0 32 32" style="enable-background:new 0 0 32 32;" xml:space="preserve">
<style type="text/css">
	.st0{fill:#FFFFFF;}
</style>
<path class="st0" d="M23.6,20.8c-1.3,0-2.6,0.6-3.4,1.5l-7.5-4.7c0.2-0.5,0.3-1.1,0.3-1.7c0-0.6-0.1-1.1-0.3-1.7l7.5-4.7
	c0.8,0.9,2,1.5,3.4,1.5c2.5,0,4.6-2.1,4.6-4.6S26.1,2,23.6,2S19,4.1,19,6.6c0,0.6,0.1,1.1,0.3,1.7l-7.5,4.7c-0.8-0.9-2-1.5-3.4-1.5
	c-2.5,0-4.6,2.1-4.6,4.6c0,2.5,2.1,4.6,4.6,4.6c1.3,0,2.6-0.6,3.4-1.5l7.5,4.7c-0.2,0.5-0.3,1.1-0.3,1.7c0,2.5,2.1,4.6,4.6,4.6
	s4.6-2.1,4.6-4.6C28.2,22.9,26.1,20.8,23.6,20.8z M20.7,6.6c0-1.6,1.3-2.9,2.9-2.9s2.9,1.3,2.9,2.9s-1.3,2.9-2.9,2.9
	S20.7,8.2,20.7,6.6z M8.4,18.9c-1.6,0-2.9-1.3-2.9-2.9s1.3-2.9,2.9-2.9c1.6,0,2.9,1.3,2.9,2.9S10,18.9,8.4,18.9z M20.7,25.4
	c0-1.6,1.3-2.9,2.9-2.9s2.9,1.3,2.9,2.9s-1.3,2.9-2.9,2.9S20.7,27,20.7,25.4z"/>
</svg>
